<svg width="60" height="60" viewBox="0 0 60 60" fill="none" xmlns="http://www.w3.org/2000/svg">
<path d="M41.6651 31.2709V22.5759C41.6651 20.013 41.6651 18.7315 41.1566 17.7526C40.7092 16.8915 39.9954 16.1914 39.1174 15.7527C38.1193 15.2539 36.8127 15.2539 34.1995 15.2539H24.2454C21.6322 15.2539 20.3256 15.2539 19.3275 15.7527C18.4495 16.1914 17.7357 16.8915 17.2883 17.7526C16.7798 18.7315 16.7798 20.013 16.7798 22.5759V38.4403C16.7798 41.0033 16.7798 42.2848 17.2883 43.2637C17.7357 44.1248 18.4495 44.8249 19.3275 45.2636C20.3256 45.7624 21.6322 45.7624 24.2454 45.7624H29.2225M32.3331 28.9827H23.0011M26.1118 35.0844H23.0011M35.4438 22.881H23.0011M33.1108 41.1861L36.2215 44.237L43.2205 37.3726" stroke-linecap="round" stroke-linejoin="round"/>
</svg>
