<svg width="384" height="107" fill="none" xmlns="http://www.w3.org/2000/svg"><g clip-path="url(#clip0_1267_9639)"><g clip-path="url(#clip1_1267_9639)"><path d="M192 107.044c106.039 0 192-23.962 192-53.522S298.039 0 192 0 0 23.963 0 53.522c0 29.56 85.961 53.522 192 53.522z" fill="#888"/><path d="M28.885 81.715c33.79 15.202 94.153 25.329 163.008 25.329 66.742 0 125.507-9.516 159.824-23.946-33.791-15.202-94.153-25.328-163.006-25.328-66.743 0-125.507 9.515-159.826 23.945z" fill="#404040"/><path d="M261.5 106c-1.692-10.08 10.358-15.178 10.358-15.178-18.372 2.88-18.13 9.599-18.13 9.599-4.352-9.6 0-27.359 0-27.359-7.978 9.84-8.461 20.418-8.461 20.418-18.856-16.3-32.878-12.018-32.878-12.018C234.63 89.622 231 106.5 231 106.5l30.5-.5zm-192.872-5.176s5.974-9.877-4.062-15.755c0 0 7.646-1.817 16.726 9.085 0 0 6.451-6.698 13.858-5.658 0 0-8.601 5.804-8.362 15.149l-18.16-2.821z" fill="#fff"/></g></g><defs><clipPath id="clip0_1267_9639"><path fill="#fff" d="M0 0h384v107H0z"/></clipPath><clipPath id="clip1_1267_9639"><path fill="#fff" d="M0 0h384v107H0z"/></clipPath></defs></svg>