<?xml version="1.0" encoding="utf-8"?><svg xmlns="http://www.w3.org/2000/svg" xmlns:xlink="http://www.w3.org/1999/xlink"><symbol fill="none" viewBox="0 0 24 24" id="chevron-down" xmlns="http://www.w3.org/2000/svg"><path d="m6 9 6 6 6-6" stroke="#555A65" stroke-width="1.5" stroke-linecap="round" stroke-linejoin="round"/></symbol><symbol fill="none" viewBox="0 0 20 20" id="email" xmlns="http://www.w3.org/2000/svg"><g clip-path="url(#ba)"><path d="M13.333 6.666v4.167a2.5 2.5 0 1 0 5 0V10a8.333 8.333 0 1 0-3.266 6.616M13.333 10a3.333 3.333 0 1 1-6.666 0 3.333 3.333 0 0 1 6.666 0Z" stroke="#555A65" stroke-width="1.5" stroke-linecap="round" stroke-linejoin="round"/></g><defs><clipPath id="ba"><path fill="#fff" d="M0 0h20v20H0z"/></clipPath></defs></symbol><symbol fill="none" viewBox="0 0 24 24" id="key" xmlns="http://www.w3.org/2000/svg"><path d="M17 9c0-.512-.195-1.024-.586-1.414A1.994 1.994 0 0 0 15 7m0 8a6 6 0 1 0-5.946-5.193c.058.434.087.651.068.789a.853.853 0 0 1-.117.346c-.068.121-.187.24-.426.479l-5.11 5.11c-.173.173-.26.26-.322.36a1 1 0 0 0-.12.29C3 17.296 3 17.418 3 17.663V19.4c0 .56 0 .84.109 1.054a1 1 0 0 0 .437.437C3.76 21 4.04 21 4.6 21H7v-2h2v-2h2l1.58-1.58c.238-.238.357-.357.478-.425a.852.852 0 0 1 .346-.117c.138-.02.355.01.789.068.264.036.533.054.807.054Z" stroke="#555A65" stroke-width="1.5" stroke-linecap="round" stroke-linejoin="round"/></symbol><symbol fill="none" viewBox="0 0 24 24" id="mail" xmlns="http://www.w3.org/2000/svg"><path d="m2 7 8.165 5.715c.661.463.992.695 1.351.784a2 2 0 0 0 .968 0c.36-.09.69-.32 1.351-.784L22 7M6.8 20h10.4c1.68 0 2.52 0 3.162-.327a3 3 0 0 0 1.311-1.311C22 17.72 22 16.88 22 15.2V8.8c0-1.68 0-2.52-.327-3.162a3 3 0 0 0-1.311-1.311C19.72 4 18.88 4 17.2 4H6.8c-1.68 0-2.52 0-3.162.327a3 3 0 0 0-1.311 1.311C2 6.28 2 7.12 2 8.8v6.4c0 1.68 0 2.52.327 3.162a3 3 0 0 0 1.311 1.311C4.28 20 5.12 20 6.8 20Z" stroke="#555A65" stroke-width="1.5" stroke-linecap="round" stroke-linejoin="round"/></symbol><symbol fill="none" viewBox="0 0 24 24" id="plan" xmlns="http://www.w3.org/2000/svg"><path d="M11 4H6.8c-1.68 0-2.52 0-3.162.327a3 3 0 0 0-1.311 1.311C2 6.28 2 7.12 2 8.8v8.4c0 1.68 0 2.52.327 3.162a3 3 0 0 0 1.311 1.311C4.28 22 5.12 22 6.8 22h8.4c1.68 0 2.52 0 3.162-.327a3 3 0 0 0 1.311-1.31C20 19.72 20 18.88 20 17.2V13M8 16h1.675c.489 0 .733 0 .963-.055a2 2 0 0 0 .579-.24c.201-.123.374-.296.72-.642L21.5 5.5a2.121 2.121 0 0 0-3-3l-9.563 9.563c-.346.346-.519.519-.642.72a2 2 0 0 0-.24.579c-.055.23-.055.474-.055.964V16Z" stroke="#555A65" stroke-width="1.5" stroke-linecap="round" stroke-linejoin="round"/></symbol></svg>