<?xml version="1.0" encoding="utf-8"?><svg xmlns="http://www.w3.org/2000/svg" xmlns:xlink="http://www.w3.org/1999/xlink"><symbol fill="none" viewBox="0 0 20 20" id="arrow-right" xmlns="http://www.w3.org/2000/svg"><path d="M4.167 10h11.666m0 0L10 4.167M15.833 10 10 15.833"/></symbol><symbol fill="none" viewBox="0 0 24 24" id="chevron-down" xmlns="http://www.w3.org/2000/svg"><path d="m6 9 6 6 6-6"/></symbol><symbol fill="none" viewBox="0 0 20 20" id="email" xmlns="http://www.w3.org/2000/svg"><g clip-path="url(#ca)"><path d="M13.333 6.666v4.167a2.5 2.5 0 1 0 5 0V10a8.333 8.333 0 1 0-3.266 6.616M13.333 10a3.333 3.333 0 1 1-6.666 0 3.333 3.333 0 0 1 6.666 0Z"/></g><defs><clipPath id="ca"><path fill="#fff" d="M0 0h20v20H0z"/></clipPath></defs></symbol><symbol fill="none" viewBox="0 0 24 24" id="key" xmlns="http://www.w3.org/2000/svg"><path d="M17 9c0-.512-.195-1.024-.586-1.414A1.994 1.994 0 0 0 15 7m0 8a6 6 0 1 0-5.946-5.193c.058.434.087.651.068.789a.853.853 0 0 1-.117.346c-.068.121-.187.24-.426.479l-5.11 5.11c-.173.173-.26.26-.322.36a1 1 0 0 0-.12.29C3 17.296 3 17.418 3 17.663V19.4c0 .56 0 .84.109 1.054a1 1 0 0 0 .437.437C3.76 21 4.04 21 4.6 21H7v-2h2v-2h2l1.58-1.58c.238-.238.357-.357.478-.425a.852.852 0 0 1 .346-.117c.138-.02.355.01.789.068.264.036.533.054.807.054Z"/></symbol><symbol fill="none" viewBox="0 0 24 24" id="mail" xmlns="http://www.w3.org/2000/svg"><path d="m2 7 8.165 5.715c.661.463.992.695 1.351.784a2 2 0 0 0 .968 0c.36-.09.69-.32 1.351-.784L22 7M6.8 20h10.4c1.68 0 2.52 0 3.162-.327a3 3 0 0 0 1.311-1.311C22 17.72 22 16.88 22 15.2V8.8c0-1.68 0-2.52-.327-3.162a3 3 0 0 0-1.311-1.311C19.72 4 18.88 4 17.2 4H6.8c-1.68 0-2.52 0-3.162.327a3 3 0 0 0-1.311 1.311C2 6.28 2 7.12 2 8.8v6.4c0 1.68 0 2.52.327 3.162a3 3 0 0 0 1.311 1.311C4.28 20 5.12 20 6.8 20Z"/></symbol><symbol fill="none" viewBox="0 0 24 24" id="plan" xmlns="http://www.w3.org/2000/svg"><path d="M11 4H6.8c-1.68 0-2.52 0-3.162.327a3 3 0 0 0-1.311 1.311C2 6.28 2 7.12 2 8.8v8.4c0 1.68 0 2.52.327 3.162a3 3 0 0 0 1.311 1.311C4.28 22 5.12 22 6.8 22h8.4c1.68 0 2.52 0 3.162-.327a3 3 0 0 0 1.311-1.31C20 19.72 20 18.88 20 17.2V13M8 16h1.675c.489 0 .733 0 .963-.055a2 2 0 0 0 .579-.24c.201-.123.374-.296.72-.642L21.5 5.5a2.121 2.121 0 0 0-3-3l-9.563 9.563c-.346.346-.519.519-.642.72a2 2 0 0 0-.24.579c-.055.23-.055.474-.055.964V16Z"/></symbol><symbol fill="none" viewBox="0 0 17 16" id="search" xmlns="http://www.w3.org/2000/svg"><path d="m14.5 14-2.333-2.333m1.666-4a5.667 5.667 0 1 1-11.333 0 5.667 5.667 0 0 1 11.333 0Z"/></symbol><symbol fill="none" viewBox="0 0 24 24" id="tg" xmlns="http://www.w3.org/2000/svg"><path clip-rule="evenodd" d="M13.51 6.422c-1.703.72-5.104 2.208-10.204 4.466-.828.335-1.262.662-1.301.982-.067.541.6.754 1.508 1.044.123.04.251.08.382.124.894.295 2.095.64 2.72.654.566.012 1.199-.225 1.897-.712 4.765-3.269 7.225-4.92 7.38-4.957.109-.025.26-.056.362.036.102.093.092.267.081.314-.066.287-2.683 2.76-4.037 4.039-.423.398-.722.681-.783.746-.138.145-.277.282-.412.413-.83.813-1.452 1.423.035 2.418.714.479 1.286.874 1.856 1.269.623.431 1.244.86 2.048 1.396.205.137.4.278.591.416.725.526 1.376.997 2.18.922.468-.044.951-.49 1.196-1.823.58-3.148 1.72-9.97 1.983-12.78a3.19 3.19 0 0 0-.03-.7c-.023-.139-.072-.336-.249-.482-.21-.173-.533-.21-.678-.207-.658.012-1.667.369-6.526 2.422Z"/></symbol><symbol viewBox="0 0 24 24" id="vk" xmlns="http://www.w3.org/2000/svg"><path d="m2 6.01-.75.016A.75.75 0 0 1 2 5.26v.75Zm3.58 0v-.75a.75.75 0 0 1 .75.736l-.75.014Zm4.82 8.993h.75a.75.75 0 0 1-.932.728l.181-.728Zm0-8.993h-.75a.75.75 0 0 1 .75-.75v.75Zm3.361 0v-.75a.75.75 0 0 1 .75.75h-.75Zm0 5.132.08.745a.75.75 0 0 1-.83-.745h.75ZM18.705 6l-.721-.204a.75.75 0 0 1 .721-.546V6Zm3.352 0v-.75a.75.75 0 0 1 .735.9L22.057 6Zm-1.604 3.717-.613-.431.613.431Zm-2.955 2.767-.334.672a.75.75 0 0 1-.056-1.312l.39.64ZM22.838 19l.723-.196a.75.75 0 0 1-.724.946V19Zm-3.696 0v.75a.75.75 0 0 1-.714-.521l.714-.229Zm-5.38-4.642h-.75a.75.75 0 0 1 .824-.746l-.075.746Zm0 4.642h.75a.75.75 0 0 1-.75.75V19Zm-.417.75c-3.743 0-6.758-1.288-8.848-3.71-2.074-2.406-3.161-5.842-3.247-10.014l1.5-.031C2.83 9.942 3.856 13 5.633 15.06c1.762 2.042 4.336 3.19 7.712 3.19v1.5ZM2 5.26h3.58v1.5H2v-1.5Zm4.33.736c.11 5.747 2.61 7.87 4.251 8.28l-.363 1.455c-2.523-.63-5.269-3.546-5.387-9.706l1.5-.029Zm3.32 9.007V6.01h1.5v8.993h-1.5Zm.75-9.743h3.361v1.5H10.4v-1.5Zm4.111.75v5.132h-1.5V6.01h1.5Zm-.83 4.386c.786-.084 1.686-.594 2.504-1.456a7.737 7.737 0 0 0 1.799-3.144l1.443.408a9.237 9.237 0 0 1-2.154 3.77c-.96 1.009-2.167 1.779-3.432 1.913l-.16-1.491Zm5.024-5.146h3.352v1.5h-3.352v-1.5Zm4.087.9a10.67 10.67 0 0 1-1.725 3.999l-1.227-.863a9.169 9.169 0 0 0 1.482-3.436l1.47.3Zm-1.725 3.999a10.67 10.67 0 0 1-3.179 2.976l-.78-1.281a9.168 9.168 0 0 0 2.732-2.558l1.227.863Zm-3.235 1.664a11.022 11.022 0 0 1 3.614 2.881l-1.16.951a9.522 9.522 0 0 0-3.122-2.49l.668-1.342Zm3.614 2.881a11.022 11.022 0 0 1 2.115 4.11l-1.448.392a9.523 9.523 0 0 0-1.827-3.55l1.16-.952Zm1.391 5.056h-3.695v-1.5h3.695v1.5Zm-4.409-.521c-.718-2.239-2.48-3.9-4.741-4.125l.149-1.492c2.964.295 5.156 2.464 6.02 5.159l-1.428.458Zm-3.917-4.871V19h-1.5v-4.642h1.5Zm-.75 5.392h-.406v-1.5h.406v1.5Zm-.406 0h-.01v-1.5h.01v1.5Z"/></symbol><symbol fill="none" viewBox="0 0 24 24" id="x-close" xmlns="http://www.w3.org/2000/svg"><path d="M18 6 6 18M6 6l12 12"/></symbol></svg>