<?xml version="1.0" encoding="utf-8"?><svg xmlns="http://www.w3.org/2000/svg" xmlns:xlink="http://www.w3.org/1999/xlink"><symbol fill="none" viewBox="0 0 20 20" id="arrow-right" xmlns="http://www.w3.org/2000/svg"><path d="M4.167 10h11.666m0 0L10 4.167M15.833 10 10 15.833"/></symbol><symbol class="abarrow-head" viewBox="0 0 20 30" id="arrowhead"><path d="M19.406 16.422a2 2 0 0 0 .016-2.828L6.765.795a2 2 0 1 0-2.844 2.813l11.251 11.376L3.795 26.235a2 2 0 0 0 2.813 2.844l12.798-12.657Z"/></symbol><symbol fill="none" viewBox="0 0 22 22" id="attention" xmlns="http://www.w3.org/2000/svg"><path d="M11 15v-4m0-4h.01M21 11c0 5.523-4.477 10-10 10S1 16.523 1 11 5.477 1 11 1s10 4.477 10 10Z"/></symbol><symbol fill="none" viewBox="0 0 24 24" id="building" xmlns="http://www.w3.org/2000/svg"><path d="M15 21v-5.4c0-.56 0-.84-.109-1.054a1 1 0 0 0-.437-.437C14.24 14 13.96 14 13.4 14h-2.8c-.56 0-.84 0-1.054.109a1 1 0 0 0-.437.437C9 14.76 9 15.04 9 15.6V21m10 0V6.2c0-1.12 0-1.68-.218-2.108a2 2 0 0 0-.874-.874C17.48 3 16.92 3 15.8 3H8.2c-1.12 0-1.68 0-2.108.218a2 2 0 0 0-.874.874C5 4.52 5 5.08 5 6.2V21m16 0H3M9.5 8h.01m4.99 0h.01M10 8a.5.5 0 1 1-1 0 .5.5 0 0 1 1 0Zm5 0a.5.5 0 1 1-1 0 .5.5 0 0 1 1 0Z"/></symbol><symbol fill="none" viewBox="0 0 24 24" id="chevron-down" xmlns="http://www.w3.org/2000/svg"><path d="m6 9 6 6 6-6"/></symbol><symbol fill="none" viewBox="0 0 20 20" id="clock" xmlns="http://www.w3.org/2000/svg"><g clip-path="url(#afa)"><path d="M10 5.001v5l3.333 1.667m5-1.667a8.333 8.333 0 1 1-16.666 0 8.333 8.333 0 0 1 16.666 0Z" stroke="#555A65" stroke-width="1.5" stroke-linecap="round" stroke-linejoin="round"/></g><defs><clipPath id="afa"><path fill="#fff" d="M0 0h20v20H0z"/></clipPath></defs></symbol><symbol fill="none" viewBox="0 0 24 24" id="dist-home" xmlns="http://www.w3.org/2000/svg"><path d="M9 20.999v-7.4c0-.56 0-.84.109-1.054a1 1 0 0 1 .437-.437c.214-.11.494-.11 1.054-.11h2.8c.56 0 .84 0 1.054.11a1 1 0 0 1 .437.437c.109.214.109.494.109 1.054v7.4M11.018 2.763 4.235 8.038c-.453.353-.68.529-.843.75a2 2 0 0 0-.318.65C3 9.702 3 9.989 3 10.564v7.235c0 1.12 0 1.68.218 2.108a2 2 0 0 0 .874.874c.428.218.988.218 2.108.218h11.6c1.12 0 1.68 0 2.108-.218a2 2 0 0 0 .874-.874c.218-.428.218-.988.218-2.108v-7.235c0-.575 0-.862-.074-1.126a2.002 2.002 0 0 0-.318-.65c-.163-.221-.39-.397-.843-.75l-6.783-5.275c-.351-.273-.527-.41-.72-.463a1 1 0 0 0-.523 0c-.194.053-.37.19-.721.463Z"/></symbol><symbol fill="none" viewBox="0 0 24 24" id="dist-message" xmlns="http://www.w3.org/2000/svg"><path d="M6.094 11.229A8.01 8.01 0 0 1 6 10c0-4.418 3.605-8 8.053-8 4.447 0 8.052 3.582 8.052 8 0 .998-.184 1.954-.52 2.835-.07.182-.105.274-.12.345a.897.897 0 0 0-.024.194c-.002.073.008.153.028.314l.403 3.27c.043.355.065.532.006.66a.5.5 0 0 1-.257.252c-.13.055-.306.03-.66-.022l-3.184-.467c-.167-.024-.25-.037-.326-.036a.898.898 0 0 0-.2.021c-.074.016-.169.051-.358.122a8.174 8.174 0 0 1-4.07.42M7.632 22C10.597 22 13 19.538 13 16.5S10.597 11 7.632 11c-2.965 0-5.369 2.462-5.369 5.5 0 .61.097 1.198.277 1.747.075.232.113.348.126.427.013.083.015.13.01.213-.005.08-.025.17-.065.351L2 22l2.995-.409c.163-.022.245-.034.316-.033.076 0 .115.005.19.02.07.013.173.05.381.123a5.246 5.246 0 0 0 1.75.299Z"/></symbol><symbol fill="none" viewBox="0 0 24 24" id="dist-monitor" xmlns="http://www.w3.org/2000/svg"><path d="M8 21h8m-4-4v4m-5.2-4h10.4c1.68 0 2.52 0 3.162-.327a3 3 0 0 0 1.311-1.311C22 14.72 22 13.88 22 12.2V7.8c0-1.68 0-2.52-.327-3.162a3 3 0 0 0-1.311-1.311C19.72 3 18.88 3 17.2 3H6.8c-1.68 0-2.52 0-3.162.327a3 3 0 0 0-1.311 1.311C2 5.28 2 6.12 2 7.8v4.4c0 1.68 0 2.52.327 3.162a3 3 0 0 0 1.311 1.311C4.28 17 5.12 17 6.8 17Z"/></symbol><symbol fill="none" viewBox="0 0 24 24" id="dist-tablet" xmlns="http://www.w3.org/2000/svg"><path d="M20 12.5V6.8c0-1.68 0-2.52-.327-3.162a3 3 0 0 0-1.311-1.311C17.72 2 16.88 2 15.2 2H8.8c-1.68 0-2.52 0-3.162.327a3 3 0 0 0-1.311 1.311C4 4.28 4 5.12 4 6.8v10.4c0 1.68 0 2.52.327 3.162a3 3 0 0 0 1.311 1.311C6.28 22 7.12 22 8.8 22H12m2-11H8m2 4H8m8-8H8m6.5 12 2 2 4.5-4.5"/></symbol><symbol fill="none" viewBox="0 0 20 20" id="email" xmlns="http://www.w3.org/2000/svg"><g clip-path="url(#aka)"><path d="M13.333 6.666v4.167a2.5 2.5 0 1 0 5 0V10a8.333 8.333 0 1 0-3.266 6.616M13.333 10a3.333 3.333 0 1 1-6.666 0 3.333 3.333 0 0 1 6.666 0Z"/></g><defs><clipPath id="aka"><path fill="#fff" d="M0 0h20v20H0z"/></clipPath></defs></symbol><symbol fill="none" viewBox="0 0 25 24" id="hotel-food" xmlns="http://www.w3.org/2000/svg"><path d="M3.5 3v2.234a6 6 0 0 0 4.193 5.722l.307.097c2.393-.85 4-3.118 4-5.657V3M8 3v18m8.5 0v-8.053m0 0V4a1 1 0 0 1 1-1h.257a1 1 0 0 1 .957.711l2.397 7.948a1 1 0 0 1-.957 1.288H16.5Z"/></symbol><symbol fill="none" viewBox="0 0 25 24" id="hotel-hand" xmlns="http://www.w3.org/2000/svg"><path d="M6.5 20.088h2.61c.34 0 .679.04 1.009.121l2.758.67c.598.146 1.222.16 1.826.043l3.05-.593a4.204 4.204 0 0 0 2.127-1.108l2.158-2.098a1.503 1.503 0 0 0 0-2.17 1.61 1.61 0 0 0-2.06-.142l-2.515 1.835c-.36.263-.799.405-1.25.405h-2.428 1.546c.871 0 1.577-.687 1.577-1.534v-.307c0-.704-.492-1.317-1.194-1.487l-2.385-.58A5.03 5.03 0 0 0 12.143 13c-.965 0-2.711.799-2.711.799L6.5 15.026m-4-.425v5.8c0 .56 0 .84.109 1.054a1 1 0 0 0 .437.437C3.26 22 3.54 22 4.1 22h.8c.56 0 .84 0 1.054-.11a1 1 0 0 0 .437-.436c.109-.214.109-.494.109-1.054v-5.8c0-.56 0-.84-.109-1.054a1 1 0 0 0-.437-.437C5.74 13 5.46 13 4.9 13h-.8c-.56 0-.84 0-1.054.11a1 1 0 0 0-.437.437C2.5 13.76 2.5 14.04 2.5 14.6ZM17.691 3.593c-.596-1.249-1.972-1.91-3.31-1.272-1.339.639-1.909 2.153-1.348 3.483.346.821 1.338 2.417 2.045 3.516.261.406.392.609.583.728.164.102.369.157.561.15.225-.007.44-.118.87-.339 1.161-.598 2.818-1.484 3.529-2.022a2.66 2.66 0 0 0 .574-3.69c-.861-1.217-2.362-1.337-3.504-.554Z"/></symbol><symbol fill="none" viewBox="0 0 25 24" id="hotel-pin" xmlns="http://www.w3.org/2000/svg"><path d="M16.5 13.374c3.532.695 6 2.28 6 4.126 0 2.485-4.477 4.5-10 4.5s-10-2.015-10-4.5c0-1.845 2.468-3.431 6-4.126m4 3.626V9m0 0a3 3 0 1 0 0-6 3 3 0 0 0 0 6Z"/></symbol><symbol fill="none" viewBox="0 0 24 24" id="key" xmlns="http://www.w3.org/2000/svg"><path d="M17 9c0-.512-.195-1.024-.586-1.414A1.994 1.994 0 0 0 15 7m0 8a6 6 0 1 0-5.946-5.193c.058.434.087.651.068.789a.853.853 0 0 1-.117.346c-.068.121-.187.24-.426.479l-5.11 5.11c-.173.173-.26.26-.322.36a1 1 0 0 0-.12.29C3 17.296 3 17.418 3 17.663V19.4c0 .56 0 .84.109 1.054a1 1 0 0 0 .437.437C3.76 21 4.04 21 4.6 21H7v-2h2v-2h2l1.58-1.58c.238-.238.357-.357.478-.425a.852.852 0 0 1 .346-.117c.138-.02.355.01.789.068.264.036.533.054.807.054Z"/></symbol><symbol fill="none" viewBox="0 0 16 20" id="location" xmlns="http://www.w3.org/2000/svg"><path d="M8 10.834a2.5 2.5 0 1 0 0-5 2.5 2.5 0 0 0 0 5Z"/><path d="M8 18.334c3.333-3.334 6.667-6.318 6.667-10a6.667 6.667 0 0 0-13.334 0c0 3.682 3.334 6.666 6.667 10Z"/></symbol><symbol fill="none" viewBox="0 0 24 24" id="mail" xmlns="http://www.w3.org/2000/svg"><path d="m2 7 8.165 5.715c.661.463.992.695 1.351.784a2 2 0 0 0 .968 0c.36-.09.69-.32 1.351-.784L22 7M6.8 20h10.4c1.68 0 2.52 0 3.162-.327a3 3 0 0 0 1.311-1.311C22 17.72 22 16.88 22 15.2V8.8c0-1.68 0-2.52-.327-3.162a3 3 0 0 0-1.311-1.311C19.72 4 18.88 4 17.2 4H6.8c-1.68 0-2.52 0-3.162.327a3 3 0 0 0-1.311 1.311C2 6.28 2 7.12 2 8.8v6.4c0 1.68 0 2.52.327 3.162a3 3 0 0 0 1.311 1.311C4.28 20 5.12 20 6.8 20Z"/></symbol><symbol fill="none" viewBox="0 0 22 28" id="pdf-download" xmlns="http://www.w3.org/2000/svg"><path d="M13.5 1.837V7c0 .7 0 1.05.136 1.318.12.235.311.426.546.546C14.45 9 14.8 9 15.5 9h5.163M7.25 17.75 11 21.5m0 0 3.75-3.75M11 21.5V14m2.5-12.5H7c-2.1 0-3.15 0-3.952.409a3.75 3.75 0 0 0-1.64 1.639C1 4.35 1 5.4 1 7.5v13c0 2.1 0 3.15.409 3.953a3.75 3.75 0 0 0 1.639 1.638C3.85 26.5 4.9 26.5 7 26.5h8c2.1 0 3.15 0 3.953-.409a3.75 3.75 0 0 0 1.638-1.639C21 23.65 21 22.6 21 20.5V9l-7.5-7.5Z"/></symbol><symbol fill="none" viewBox="0 0 24 24" id="plan" xmlns="http://www.w3.org/2000/svg"><path d="M11 4H6.8c-1.68 0-2.52 0-3.162.327a3 3 0 0 0-1.311 1.311C2 6.28 2 7.12 2 8.8v8.4c0 1.68 0 2.52.327 3.162a3 3 0 0 0 1.311 1.311C4.28 22 5.12 22 6.8 22h8.4c1.68 0 2.52 0 3.162-.327a3 3 0 0 0 1.311-1.31C20 19.72 20 18.88 20 17.2V13M8 16h1.675c.489 0 .733 0 .963-.055a2 2 0 0 0 .579-.24c.201-.123.374-.296.72-.642L21.5 5.5a2.121 2.121 0 0 0-3-3l-9.563 9.563c-.346.346-.519.519-.642.72a2 2 0 0 0-.24.579c-.055.23-.055.474-.055.964V16Z"/></symbol><symbol fill="none" viewBox="0 0 24 24" id="plane" xmlns="http://www.w3.org/2000/svg"><path d="M17.745 2.814a2.483 2.483 0 0 1 3.58 3.442l-2.78 2.91c-.217.228-.326.342-.393.476a1 1 0 0 0-.104.379c-.01.149.025.302.096.61l1.728 7.487c.073.316.109.474.097.626a.999.999 0 0 1-.11.387c-.072.135-.186.25-.415.479l-.37.37c-.607.606-.91.91-1.22.964a1 1 0 0 1-.77-.181c-.253-.188-.389-.595-.66-1.408l-2.01-6.03-3.345 3.346c-.2.2-.3.3-.366.417-.06.104-.1.218-.118.336-.022.134-.006.274.025.555l.184 1.653c.031.281.047.421.025.555a1 1 0 0 1-.118.336c-.067.118-.166.218-.366.417l-.198.198c-.473.473-.71.71-.972.778a1 1 0 0 1-.69-.068c-.244-.119-.43-.397-.8-.954l-1.569-2.352c-.066-.1-.099-.15-.137-.195a1.006 1.006 0 0 0-.112-.111 2.071 2.071 0 0 0-.194-.138L3.31 16.529c-.556-.37-.835-.556-.953-.8a1 1 0 0 1-.069-.69c.069-.262.305-.5.778-.972l.198-.198c.2-.2.3-.3.417-.366.104-.06.218-.1.336-.118.134-.021.274-.006.555.026l1.653.183c.281.031.421.047.555.026a1 1 0 0 0 .336-.118c.118-.067.218-.167.417-.367L10.88 9.79l-6.03-2.01c-.813-.27-1.22-.406-1.407-.66a1 1 0 0 1-.182-.77c.055-.31.358-.613.964-1.219l.37-.37c.23-.23.344-.344.48-.415a1 1 0 0 1 .386-.11c.153-.013.31.024.626.097l7.46 1.721c.31.071.464.107.614.097a1 1 0 0 0 .412-.122c.13-.073.242-.187.463-.415l2.71-2.8Z"/></symbol><symbol fill="none" viewBox="0 0 24 24" id="route" xmlns="http://www.w3.org/2000/svg"><path d="M11.5 5h.434c3.048 0 4.571 0 5.15.547a2 2 0 0 1 .586 1.845c-.156.781-1.4 1.66-3.888 3.42l-4.064 2.876c-2.488 1.76-3.732 2.639-3.888 3.42a2 2 0 0 0 .586 1.845c.579.547 2.102.547 5.15.547h.934M8 5a3 3 0 1 1-6 0 3 3 0 0 1 6 0Zm14 14a3 3 0 1 1-6 0 3 3 0 0 1 6 0Z"/></symbol><symbol fill="none" viewBox="0 0 17 16" id="search" xmlns="http://www.w3.org/2000/svg"><path d="m14.5 14-2.333-2.333m1.666-4a5.667 5.667 0 1 1-11.333 0 5.667 5.667 0 0 1 11.333 0Z"/></symbol><symbol fill="none" viewBox="0 0 24 24" id="tg" xmlns="http://www.w3.org/2000/svg"><path clip-rule="evenodd" d="M13.51 6.422c-1.703.72-5.104 2.208-10.204 4.466-.828.335-1.262.662-1.301.982-.067.541.6.754 1.508 1.044.123.04.251.08.382.124.894.295 2.095.64 2.72.654.566.012 1.199-.225 1.897-.712 4.765-3.269 7.225-4.92 7.38-4.957.109-.025.26-.056.362.036.102.093.092.267.081.314-.066.287-2.683 2.76-4.037 4.039-.423.398-.722.681-.783.746-.138.145-.277.282-.412.413-.83.813-1.452 1.423.035 2.418.714.479 1.286.874 1.856 1.269.623.431 1.244.86 2.048 1.396.205.137.4.278.591.416.725.526 1.376.997 2.18.922.468-.044.951-.49 1.196-1.823.58-3.148 1.72-9.97 1.983-12.78a3.19 3.19 0 0 0-.03-.7c-.023-.139-.072-.336-.249-.482-.21-.173-.533-.21-.678-.207-.658.012-1.667.369-6.526 2.422Z"/></symbol><symbol fill="none" viewBox="0 0 24 24" id="train" xmlns="http://www.w3.org/2000/svg"><path d="M9.5 22h5M8 2h8m-4 3V2M4 12h16m-3 7 1.5 3M7 19l-1.5 3m3-6.5h.01m6.99 0h.01M8.8 19h6.4c1.68 0 2.52 0 3.162-.327a3 3 0 0 0 1.311-1.311C20 16.72 20 15.88 20 14.2V9.8c0-1.68 0-2.52-.327-3.162a3 3 0 0 0-1.311-1.311C17.72 5 16.88 5 15.2 5H8.8c-1.68 0-2.52 0-3.162.327a3 3 0 0 0-1.311 1.311C4 7.28 4 8.12 4 9.8v4.4c0 1.68 0 2.52.327 3.162a3 3 0 0 0 1.311 1.311C6.28 19 7.12 19 8.8 19Zm.2-3.5a.5.5 0 1 1-1 0 .5.5 0 0 1 1 0Zm7 0a.5.5 0 1 1-1 0 .5.5 0 0 1 1 0Z"/></symbol><symbol viewBox="0 0 24 24" id="vk" xmlns="http://www.w3.org/2000/svg"><path d="m2 6.01-.75.016A.75.75 0 0 1 2 5.26v.75Zm3.58 0v-.75a.75.75 0 0 1 .75.736l-.75.014Zm4.82 8.993h.75a.75.75 0 0 1-.932.728l.181-.728Zm0-8.993h-.75a.75.75 0 0 1 .75-.75v.75Zm3.361 0v-.75a.75.75 0 0 1 .75.75h-.75Zm0 5.132.08.745a.75.75 0 0 1-.83-.745h.75ZM18.705 6l-.721-.204a.75.75 0 0 1 .721-.546V6Zm3.352 0v-.75a.75.75 0 0 1 .735.9L22.057 6Zm-1.604 3.717-.613-.431.613.431Zm-2.955 2.767-.334.672a.75.75 0 0 1-.056-1.312l.39.64ZM22.838 19l.723-.196a.75.75 0 0 1-.724.946V19Zm-3.696 0v.75a.75.75 0 0 1-.714-.521l.714-.229Zm-5.38-4.642h-.75a.75.75 0 0 1 .824-.746l-.075.746Zm0 4.642h.75a.75.75 0 0 1-.75.75V19Zm-.417.75c-3.743 0-6.758-1.288-8.848-3.71-2.074-2.406-3.161-5.842-3.247-10.014l1.5-.031C2.83 9.942 3.856 13 5.633 15.06c1.762 2.042 4.336 3.19 7.712 3.19v1.5ZM2 5.26h3.58v1.5H2v-1.5Zm4.33.736c.11 5.747 2.61 7.87 4.251 8.28l-.363 1.455c-2.523-.63-5.269-3.546-5.387-9.706l1.5-.029Zm3.32 9.007V6.01h1.5v8.993h-1.5Zm.75-9.743h3.361v1.5H10.4v-1.5Zm4.111.75v5.132h-1.5V6.01h1.5Zm-.83 4.386c.786-.084 1.686-.594 2.504-1.456a7.737 7.737 0 0 0 1.799-3.144l1.443.408a9.237 9.237 0 0 1-2.154 3.77c-.96 1.009-2.167 1.779-3.432 1.913l-.16-1.491Zm5.024-5.146h3.352v1.5h-3.352v-1.5Zm4.087.9a10.67 10.67 0 0 1-1.725 3.999l-1.227-.863a9.169 9.169 0 0 0 1.482-3.436l1.47.3Zm-1.725 3.999a10.67 10.67 0 0 1-3.179 2.976l-.78-1.281a9.168 9.168 0 0 0 2.732-2.558l1.227.863Zm-3.235 1.664a11.022 11.022 0 0 1 3.614 2.881l-1.16.951a9.522 9.522 0 0 0-3.122-2.49l.668-1.342Zm3.614 2.881a11.022 11.022 0 0 1 2.115 4.11l-1.448.392a9.523 9.523 0 0 0-1.827-3.55l1.16-.952Zm1.391 5.056h-3.695v-1.5h3.695v1.5Zm-4.409-.521c-.718-2.239-2.48-3.9-4.741-4.125l.149-1.492c2.964.295 5.156 2.464 6.02 5.159l-1.428.458Zm-3.917-4.871V19h-1.5v-4.642h1.5Zm-.75 5.392h-.406v-1.5h.406v1.5Zm-.406 0h-.01v-1.5h.01v1.5Z"/></symbol><symbol fill="none" viewBox="0 0 24 24" id="wifi" xmlns="http://www.w3.org/2000/svg"><path d="M12.002 19.5h.01M22.808 8.7a15.942 15.942 0 0 0-10.806-4.2c-4.166 0-7.96 1.592-10.807 4.2m3.539 3.543A10.958 10.958 0 0 1 12.002 9.5c2.786 0 5.33 1.036 7.268 2.743m-3.57 3.532a5.975 5.975 0 0 0-3.698-1.275c-1.417 0-2.718.49-3.745 1.312"/></symbol><symbol fill="none" viewBox="0 0 24 24" id="x-close" xmlns="http://www.w3.org/2000/svg"><path d="M18 6 6 18M6 6l12 12"/></symbol></svg>