<svg width="50" height="50" fill="none" xmlns="http://www.w3.org/2000/svg"><path d="M49.77 8.995L43.51 6.49 41.006.23 37.73 3.504A24.905 24.905 0 0025 0C11.216 0 0 11.216 0 25s11.216 25 25 25 25-11.216 25-25c0-4.498-1.219-8.876-3.505-12.73l3.275-3.275zm-7.864-.901l4.157 1.662-2.565 2.564-4.154-1.664-1.663-4.155 2.564-2.565 1.661 4.158zM47.916 25c0 12.636-10.28 22.917-22.916 22.917-12.636 0-22.917-10.28-22.917-22.917C2.083 12.364 12.363 2.083 25 2.083c3.946 0 7.797 1.012 11.216 2.936l-.98.98 2.083 5.21-1.312 1.31C33.07 9.924 29.221 8.334 25 8.334 15.81 8.333 8.333 15.81 8.333 25c0 9.19 7.477 16.667 16.667 16.667 9.19 0 16.667-7.477 16.667-16.667 0-4.22-1.59-8.069-4.186-11.008l1.312-1.312 5.21 2.084.98-.98A22.852 22.852 0 0147.916 25zM31.25 25A6.256 6.256 0 0125 31.25 6.256 6.256 0 0118.75 25 6.256 6.256 0 0125 18.75c1.348 0 2.594.433 3.616 1.162l-3.083 3.082a2.104 2.104 0 00-.533-.077A2.083 2.083 0 1027.083 25c0-.185-.032-.361-.077-.533l3.082-3.083A6.209 6.209 0 0131.25 25zm-1.148-6.575A8.284 8.284 0 0025 16.667c-4.595 0-8.333 3.738-8.333 8.333 0 4.595 3.738 8.333 8.333 8.333 4.595 0 8.333-3.738 8.333-8.333 0-1.923-.66-3.69-1.758-5.102l4.434-4.434A14.51 14.51 0 0139.583 25c0 8.042-6.541 14.583-14.583 14.583S10.417 33.042 10.417 25 16.958 10.417 25 10.417c3.646 0 6.976 1.354 9.535 3.575l-4.433 4.433z" fill="#0083C1"/></svg>