<svg width="50" height="50" fill="none" xmlns="http://www.w3.org/2000/svg"><path d="M45.934 19.39l.72-6.894-6.332-2.817-2.816-6.333-6.894.72L25 0l-5.61 4.066-6.894-.72L9.68 9.678l-6.333 2.818.72 6.893L0 25l4.066 5.61-.72 6.894 6.332 2.817 2.816 6.333 6.894-.72L25 50l5.61-4.066 6.894.72 2.817-6.332 6.333-2.818-.72-6.893L50 25l-4.066-5.61zm-1.488 16.84l-5.688 2.53-2.53 5.687-6.189-.646L25 47.452 19.96 43.8l-6.189.646-2.53-5.688-5.687-2.53.646-6.188L2.548 25l3.653-5.04-.646-6.189 5.688-2.53 2.53-5.687 6.189.646L25 2.548 30.04 6.2l6.189-.646 2.53 5.688 5.687 2.53-.646 6.188L47.452 25l-3.653 5.04.647 6.189z" fill="#0083C1"/><path d="M21.311 31.825l-6.57-6.38-1.475 1.433 8.045 7.814 18.485-17.954-1.476-1.433-17.009 16.52z" fill="#0083C1"/></svg>