<svg width="50" height="50" fill="none" xmlns="http://www.w3.org/2000/svg"><path d="M26.042 3.178V0h-2.084v3.178C12.73 3.71 3.71 12.73 3.178 23.958H0v2.084h3.178c.532 11.229 9.551 20.248 20.78 20.78V50h2.084v-3.178c11.229-.532 20.248-9.551 20.78-20.78H50v-2.084h-3.178C46.29 12.73 37.27 3.71 26.042 3.178zm0 41.56v-3.071h-2.084v3.072C13.878 44.21 5.79 36.121 5.261 26.042h3.072v-2.084H5.261C5.79 13.878 13.878 5.79 23.958 5.261v3.072h2.084V5.261c10.08.529 18.168 8.617 18.697 18.697h-3.072v2.084h3.072c-.529 10.08-8.617 18.168-18.697 18.697z" fill="#0083C1"/><path d="M25.184 12.246C19.862 12.246 16 16.65 16 22.714c0 6.165 8.14 14.041 8.487 14.373l.697.67.697-.67c.346-.332 8.486-8.208 8.486-14.373 0-6.065-3.862-10.468-9.183-10.468zm0 22.609c-1.92-1.999-7.143-7.828-7.143-12.14 0-4.931 2.937-8.375 7.143-8.375 4.206 0 7.143 3.444 7.143 8.374 0 4.313-5.223 10.142-7.143 12.14z" fill="#0083C1"/><path d="M25.082 17.348A4.086 4.086 0 0021 21.429a4.086 4.086 0 004.082 4.082 4.086 4.086 0 004.081-4.082 4.086 4.086 0 00-4.081-4.081zm0 6.122a2.043 2.043 0 01-2.041-2.04c0-1.126.915-2.041 2.04-2.041 1.126 0 2.041.915 2.041 2.04a2.042 2.042 0 01-2.04 2.041z" fill="#0083C1"/></svg>