<svg width="180" height="51" fill="none" xmlns="http://www.w3.org/2000/svg"><g clip-path="url(#clip0_865_1402)"><path d="M54.77 19.538h-9.215V7.11h1.241v11.263h5.759V7.109h1.243v11.263h2.131v3.024h-1.16v-1.858zM57.807 7.11h1.243v5.212h6.333V7.109h1.243v12.43h-1.243v-6H59.05v6h-1.243V7.108zm10.611 1.215V7.11h6.816v1.216H72.46v11.213h-1.268V8.325h-2.774zm18.393 11.213h-1.295v-9.53l-8.201 9.53h-.28V7.11h1.243v9.694l8.254-9.694h.28v12.43zm-41.237 6.735H58.22v17.819h-1.783V27.97h-9.08v16.122h-1.782V26.273zm16.549 0h3.551c2.037 0 3.411.09 4.122.266 1.02.25 1.852.766 2.498 1.545.647.779.97 1.759.97 2.936 0 1.188-.316 2.166-.945 2.937-.631.771-1.5 1.29-2.606 1.556-.808.194-2.32.29-4.535.29h-1.272v8.285h-1.781V26.273h-.002zm1.782 1.744v6.045l3.019.036c1.22 0 2.112-.11 2.678-.333a2.752 2.752 0 001.333-1.075 2.98 2.98 0 00.485-1.662c0-.596-.162-1.142-.485-1.637a2.668 2.668 0 00-1.28-1.058c-.53-.21-1.395-.316-2.6-.316h-3.15zm20.994-2.193c2.702 0 4.962.9 6.781 2.701 1.82 1.801 2.73 4.018 2.73 6.65 0 2.609-.908 4.822-2.724 6.638-1.815 1.816-4.03 2.726-6.64 2.726-2.645 0-4.877-.904-6.697-2.713-1.82-1.808-2.728-3.996-2.728-6.565 0-1.711.415-3.3 1.244-4.76a9.034 9.034 0 013.39-3.433 9.094 9.094 0 014.644-1.244zm.08 1.733c-1.32 0-2.57.344-3.751 1.031a7.433 7.433 0 00-2.768 2.775c-.664 1.165-.997 2.462-.997 3.893 0 2.118.736 3.905 2.204 5.364 1.47 1.459 3.24 2.188 5.312 2.188a7.63 7.63 0 003.842-1.006 7.196 7.196 0 002.757-2.753c.66-1.164.99-2.456.99-3.879 0-1.413-.33-2.693-.99-3.837-.66-1.143-1.59-2.06-2.785-2.745a7.548 7.548 0 00-3.814-1.031zm14.343 16.535H97.54V26.273h8.936v1.744h-7.153v16.075zm9.276-17.819h3.551c2.036 0 3.411.09 4.122.266 1.019.25 1.852.766 2.498 1.545.646.779.97 1.759.97 2.936 0 1.188-.316 2.166-.945 2.937-.631.771-1.5 1.29-2.607 1.556-.808.194-2.319.29-4.534.29h-1.272v8.285H108.6V26.273h-.002zm1.783 1.744v6.045l3.019.036c1.221 0 2.112-.11 2.679-.333a2.759 2.759 0 001.333-1.075 2.98 2.98 0 00.484-1.662c0-.596-.161-1.142-.484-1.637a2.67 2.67 0 00-1.28-1.058c-.528-.21-1.395-.316-2.601-.316h-3.15zm12.51-1.744h10.22v1.744h-8.437v5.585h8.365v1.744h-8.365v7.002h8.365v1.744h-10.148V26.273zm29.486 3.307l-1.406 1.079c-.776-1.009-1.708-1.774-2.795-2.295-1.088-.52-2.282-.78-3.582-.78-1.422 0-2.74.341-3.953 1.023-1.213.684-2.152 1.6-2.817 2.75-.668 1.152-1 2.446-1 3.884 0 2.17.745 3.985 2.237 5.438 1.491 1.453 3.373 2.18 5.643 2.18 2.498 0 4.586-.976 6.268-2.93l1.407 1.065a8.974 8.974 0 01-3.329 2.622c-1.329.617-2.813.927-4.454.927-3.12 0-5.58-1.037-7.383-3.114-1.511-1.751-2.266-3.867-2.266-6.346 0-2.608.917-4.802 2.746-6.584 1.83-1.78 4.123-2.67 6.88-2.67 1.665 0 3.167.328 4.51.987a8.718 8.718 0 013.294 2.764zm19.764 0l-1.407 1.079c-.775-1.009-1.707-1.774-2.795-2.295-1.087-.52-2.281-.78-3.581-.78-1.422 0-2.74.341-3.953 1.023-1.213.684-2.152 1.6-2.818 2.75-.667 1.152-1 2.446-1 3.884 0 2.17.746 3.985 2.238 5.438 1.491 1.453 3.373 2.18 5.643 2.18 2.498 0 4.586-.976 6.268-2.93l1.407 1.065a8.982 8.982 0 01-3.329 2.622c-1.329.617-2.814.927-4.454.927-3.12 0-5.58-1.037-7.383-3.114-1.511-1.751-2.266-3.867-2.266-6.346 0-2.608.916-4.802 2.745-6.584 1.831-1.78 4.124-2.67 6.881-2.67 1.665 0 3.167.328 4.509.987a8.714 8.714 0 013.295 2.764z" fill="#0083C1"/><path d="M39.645 6.46c.698 0 .979.493.625 1.095L30.207 24.81c-.505.813-1.017.623-1.372.02L18.688 7.558c-.354-.602-.072-1.094.627-1.094h20.33V6.46zM15.85 39.646c-.333-.56-.343-1.484-.02-2.05l6.061-10.434c.394-.715.763-1.06 1.662-1.06H28.3c.652 0 .977.473.652 1.037l-9.574 16.454c-.325.566-.844.57-1.175.01l-2.354-3.957zM8.59 25.58c-.654 0-.916-.46-.586-1.022l6.229-10.601c.332-.562.872-.562 1.203 0l6.229 10.601c.33.563.066 1.022-.588 1.022H8.59z" fill="#ED6824"/></g><defs><clipPath id="clip0_865_1402"><path fill="#fff" d="M0 0h180v51H0z"/></clipPath></defs></svg>