<svg width="180" height="51" fill="none" xmlns="http://www.w3.org/2000/svg"><g clip-path="url(#clip0_554_37)"><path d="M54.77 19.54h-9.215V7.11h1.241v11.263h5.759V7.11h1.243v11.263h2.131v3.024h-1.16V19.54zm3.036-12.43h1.243v5.213h6.333V7.11h1.244v12.43h-1.244v-6H59.05v6h-1.243V7.11zm10.612 1.216V7.11h6.816v1.216H72.46V19.54h-1.268V8.326H68.42zM86.81 19.54h-1.294v-9.53l-8.202 9.53h-.28V7.11h1.244v9.694l8.253-9.694h.28v12.43zm-41.236 6.733h12.645V44.09h-1.784V27.969h-9.08v16.122h-1.781V26.273zm16.55 0h3.551c2.036 0 3.41.09 4.122.266 1.019.249 1.852.765 2.498 1.544.647.78.97 1.76.97 2.937 0 1.187-.316 2.165-.945 2.937-.631.771-1.5 1.29-2.607 1.556-.808.193-2.32.29-4.534.29h-1.272v8.284h-1.781V26.273h-.002zm1.781 1.744v6.044l3.02.036c1.22 0 2.111-.11 2.678-.332a2.752 2.752 0 001.333-1.075 2.98 2.98 0 00.484-1.662c0-.597-.161-1.142-.484-1.638a2.669 2.669 0 00-1.28-1.058c-.53-.209-1.395-.315-2.6-.315h-3.15zm20.993-2.192c2.702 0 4.962.9 6.782 2.7 1.82 1.802 2.73 4.019 2.73 6.651 0 2.608-.909 4.822-2.725 6.637-1.815 1.816-4.03 2.726-6.64 2.726-2.645 0-4.877-.904-6.697-2.712-1.819-1.809-2.728-3.997-2.728-6.565 0-1.712.415-3.3 1.244-4.76a9.034 9.034 0 013.39-3.433 9.094 9.094 0 014.644-1.244zm.08 1.732c-1.32 0-2.57.344-3.751 1.032a7.431 7.431 0 00-2.768 2.775c-.664 1.164-.996 2.462-.996 3.892 0 2.118.735 3.906 2.203 5.365 1.47 1.458 3.24 2.188 5.312 2.188a7.631 7.631 0 003.842-1.007 7.198 7.198 0 002.757-2.752c.66-1.165.99-2.457.99-3.88 0-1.413-.33-2.693-.99-3.837-.66-1.143-1.59-2.059-2.785-2.744a7.549 7.549 0 00-3.814-1.032zm14.345 16.534h-1.784V26.273h8.936v1.744h-7.152V44.09zm9.274-17.818h3.551c2.036 0 3.411.09 4.122.266 1.019.249 1.852.765 2.498 1.544.646.78.97 1.76.97 2.937 0 1.187-.316 2.165-.945 2.937-.632.771-1.5 1.29-2.607 1.556-.808.193-2.319.29-4.534.29h-1.272v8.284h-1.782V26.273h-.001zm1.783 1.744v6.044l3.019.036c1.221 0 2.112-.11 2.679-.332a2.758 2.758 0 001.333-1.075 2.98 2.98 0 00.484-1.662c0-.597-.161-1.142-.484-1.638a2.675 2.675 0 00-1.28-1.058c-.529-.209-1.395-.315-2.601-.315h-3.15zm12.512-1.744h10.221v1.744h-8.438v5.585h8.365v1.743h-8.365v7.002h8.365v1.744h-10.148V26.273zm29.485 3.307l-1.406 1.08c-.776-1.01-1.708-1.775-2.795-2.295-1.088-.52-2.282-.781-3.582-.781-1.422 0-2.74.342-3.953 1.024-1.213.684-2.152 1.6-2.817 2.75-.668 1.151-1 2.445-1 3.883 0 2.171.745 3.985 2.237 5.439 1.491 1.453 3.373 2.18 5.643 2.18 2.498 0 4.586-.976 6.268-2.93l1.407 1.065a8.975 8.975 0 01-3.329 2.621c-1.329.618-2.813.927-4.454.927-3.12 0-5.58-1.037-7.383-3.113-1.511-1.752-2.266-3.868-2.266-6.347 0-2.608.917-4.802 2.746-6.584 1.83-1.78 4.123-2.67 6.88-2.67 1.665 0 3.167.328 4.51.987a8.718 8.718 0 013.294 2.764zm19.763 0l-1.406 1.08c-.776-1.01-1.708-1.775-2.795-2.295-1.088-.52-2.282-.781-3.582-.781-1.422 0-2.74.342-3.953 1.024-1.213.684-2.152 1.6-2.817 2.75-.668 1.151-1 2.445-1 3.883 0 2.171.745 3.985 2.237 5.439 1.491 1.453 3.373 2.18 5.643 2.18 2.498 0 4.586-.976 6.268-2.93l1.407 1.065a8.975 8.975 0 01-3.329 2.621c-1.329.618-2.813.927-4.454.927-3.12 0-5.58-1.037-7.383-3.113-1.511-1.752-2.266-3.868-2.266-6.347 0-2.608.917-4.802 2.746-6.584 1.83-1.78 4.123-2.67 6.88-2.67 1.665 0 3.167.328 4.51.987a8.718 8.718 0 013.294 2.764z" fill="#6291B4"/><path d="M39.644 6.46c.698 0 .979.492.625 1.095L30.206 24.808c-.505.814-1.017.624-1.372.021L18.687 7.557c-.354-.603-.072-1.095.627-1.095h20.33V6.46zM15.848 39.644c-.332-.56-.342-1.483-.019-2.05L21.89 27.16c.394-.714.763-1.06 1.662-1.06h4.747c.652 0 .977.473.652 1.037l-9.574 16.455c-.325.566-.844.57-1.175.009l-2.354-3.957zM8.59 25.582c-.654 0-.917-.46-.586-1.022l6.228-10.602c.333-.562.873-.562 1.204 0l6.228 10.602c.331.562.067 1.022-.587 1.022H8.59z" fill="#F9933E"/></g><defs><clipPath id="clip0_554_37"><path fill="#fff" d="M0 0h180v51H0z"/></clipPath></defs></svg>